<svg xmlns="http://www.w3.org/2000/svg" width="568" height="580">
  <path d="M0 0h568v580H0z" fill="#4338CA"/>
  <path d="M0 0h568v580H0zm189 66c-3.39 4.14-5.767 8.231-7.453 13.305-1.961 5.128-3.843 9.583-8.547 12.695-7.306 1.72-14.693 1.384-22.137 1.071-15.533-.632-28.015 5.643-39.675 15.679C101.128 118.301 94.424 131.338 92 145c-.03 3.59.162 7.137.348 10.722.631 15.686.631 15.686-3.086 20.554-4.484 3.624-9.628 5.726-14.975 7.777C60.686 189.686 52.49 204.107 47 217c-4.286 11.702-3.928 28.998.383 40.64 2.704 5.617 5.692 11.08 8.82 16.472l1.434 2.482 1.303 2.209c1.204 2.495 1.838 4.429 2.06 7.197-.925 2.397-.925 2.397-2.387 4.879l-1.59 2.771c-.565.961-1.13 1.922-1.71 2.913-9.589 17.128-14.094 33.549-8.872 53.194C48.767 357.217 52.287 363.77 57 370l1.652 2.203c5.315 6.552 11.884 11.474 19.735 14.578 9.372 4.016 9.372 4.016 12.613 8.219 2.165 7.119 1.399 14.602 1.024 21.935C91.917 430.697 97.667 443.35 106 454l2.25 3.125c8.811 9.212 21.9 17.293 34.75 18.875 2.309-.052 4.617-.154 6.922-.29 20.012-1.028 20.012-1.028 25.513 3.13 3.897 4.716 6.26 10.144 8.544 15.78 5.15 12.01 17.615 20.573 29.333 25.384L216 521l2.5.965c13.999 4.63 30.183 3.095 43.5-2.965a207 207 0 0 0 13.87-8.161c6.318-3.93 6.318-3.93 10.251-3.487 2.91 1.665 5.802 3.338 8.637 5.127 15.537 9.785 31.385 14.625 49.738 10.634 16.153-4.072 29.332-12.478 38.629-26.363l1.323-1.948c2.06-3.134 3.56-5.827 4.79-9.404 1.472-4.017 2.293-5.817 5.762-8.398 6.714-1.375 13.544-1.152 20.363-1.008 16.895.32 31.193-6.766 43.325-18.242C468.913 447.11 474.493 434.593 476 420a129 129 0 0 0-.29-6.219c-1.017-16.068-1.017-16.068 3.13-20.945 4.807-3.74 10.237-6.192 15.77-8.67 4.969-2.424 8.603-6.191 12.39-10.166l1.934-1.875c10.287-10.62 14.659-26.045 14.503-40.5l-.029-3.08c-.35-14.828-6.943-28.088-15.248-40.236-1.495-2.975-1.027-4.138-.16-7.309 1.076-2.277 1.076-2.277 2.398-4.582l1.454-2.576 1.523-2.654c8.798-15.362 12.668-31.857 9.145-49.608-2.43-8.81-6.767-16.507-12.52-23.58l-1.473-2.031c-4.49-5.787-10.33-9.552-16.418-13.477l-1.911-1.24c-2.26-1.353-2.26-1.353-5.1-2.42-3.144-1.349-5.542-2.549-8.098-4.832-1.426-4.496-1.165-8.763-.937-13.437q.025-3.794.015-7.586l.006-3.664c-.38-15.02-8.034-28.527-18.084-39.313-9.63-9.126-22.89-16.975-36.503-17.009l-7.524.408c-16.227.679-16.227.679-21.378-3.219-3.887-4.71-6.23-10.137-8.532-15.752-5.081-11.603-16.784-19.999-28.188-24.803A191 191 0 0 0 351 48l-2.43-.898c-14.92-4.944-31.061-2.874-44.935 4.084a287 287 0 0 0-13.669 7.748c-2.339 1.268-4.394 2.342-6.966 3.066-2.32-.811-2.32-.811-4.695-2.29l-2.672-1.605-2.758-1.73C244.717 38.981 212.141 41.079 189 66" fill="#4338CA"/>
  <path d="M277.819 58.827C280.22 60.119 282.37 61.245 285 62c2.233-.65 2.233-.65 4.293-2.07l2.412-1.47c.82-.522 1.638-1.046 2.482-1.585 15.62-9.767 31.885-15.032 50.34-11C361.837 50.307 375.596 59.709 385 75q.869 2.215 1.672 4.453c1.967 4.97 3.807 9.435 8.328 12.547 8.554 2.12 17.767 1.198 26.507.97C432.9 93.068 443.062 98.215 452 105l2.355 1.734c9.264 7.462 16.313 18.89 19.645 30.266l.56 1.807c1.282 4.74 1.471 8.907 1.186 13.81-1.16 12.427-1.16 12.427 2.996 23.62 4.495 3.594 9.645 5.717 14.97 7.8 13.585 5.722 21.754 20.007 27.11 32.95 2.283 6.068 2.602 11.573 2.49 18.013l.01 2.828c-.112 14.666-5.33 26.883-13.463 38.92-1.803 2.799-2.85 4.792-2.918 8.15 1.458 4.272 3.588 7.973 5.871 11.852 9.16 15.992 13.355 31.692 9.504 50.27A67 67 0 0 1 519 356l-1.285 2.871c-3.489 7.006-8.138 12.672-13.715 18.129l-1.722 1.7c-3.518 3.297-6.704 5.675-11.18 7.51-5.296 2.207-10.324 4.327-14.098 8.79-2.39 7.064-1.52 14.545-1.056 21.867.301 16.949-7.914 30.712-19.069 42.82-9.14 8.808-22.09 15.553-34.875 16.313a301 301 0 0 1-6.168-.387c-12.24-1.102-12.24-1.102-23.161 3.264-3.813 4.737-6.172 10.047-8.506 15.622-6.06 13.013-19.471 21.92-32.56 26.755-15.183 4.64-31.089 4.64-45.605-2.254a235 235 0 0 1-13.82-8.161c-4.8-3.128-4.8-3.128-10.309-3.487-2.893 1.66-5.763 3.336-8.578 5.127-15.636 9.902-31.724 14.16-50.152 10.822-17.675-4.573-31.126-14.878-40.692-30.2l-1.184-1.87C180 489 180 489 178.665 485.886c-1.613-3.448-3.063-6.098-5.665-8.886-4.902-1.534-9.534-1.275-14.625-1-17.194.532-33.78-3.11-46.766-15.293C101.14 449.602 92.781 435.585 92 420a234 234 0 0 1 .457-5.793c.456-6.567.89-12.95-1.457-19.207-5.186-5.779-12.414-8.63-19.392-11.707-12.007-5.952-20.28-19.422-24.426-31.72-2.025-6.74-2.696-12.99-2.62-20.01l.03-3.067c.352-14.803 6.958-28.06 15.248-40.187 1.493-2.973 1.027-4.143.16-7.309-1.039-2.232-1.039-2.232-2.363-4.406l-1.435-2.482-1.515-2.612c-8.995-16.145-13.421-33.285-8.769-51.809A71 71 0 0 1 50 210l1.352-2.71c5.987-10.872 14.3-18.287 24.609-24.868l1.874-1.205C80 180 80 180 82.894 178.86c3.177-1.348 5.548-2.534 8.106-4.861 1.43-4.682 1.163-9.146.937-14q-.024-3.937-.011-7.875l-.006-3.77c.347-14.614 8.293-28.419 18.197-38.777 9.09-8.129 21.91-16.655 34.409-16.548l3.7.33c14.419 1.394 14.419 1.394 27.39-3.397 4.19-5.225 6.725-11.205 9.233-17.373C190.212 60.523 203.384 52.94 215 48c22.687-8.544 43.144-.743 62.819 10.827m-68.255 52.233c-4.527 3.426-9.5 6.097-14.439 8.877a2118 2118 0 0 0-5.867 3.43 1763 1763 0 0 1-13.703 7.89l-1.908 1.09a5159 5159 0 0 1-9.209 5.237 762 762 0 0 0-6.57 3.779 87 87 0 0 1-5.186 2.76c-6.92 3.57-9.758 10.05-13.307 16.69q-1.042 1.894-2.092 3.786a1687 1687 0 0 0-4.244 7.711c-2.931 5.332-6.015 10.573-9.102 15.815a4492 4492 0 0 0-15.062 25.937l-1.903 3.3A7408 7408 0 0 0 102 226l-2.057 3.06c-2.548 4.492-2.583 8.703-2.635 13.777l-.075 2.921a798 798 0 0 0-.151 9.543l-.046 3.325q-.115 8.74-.162 17.48-.046 7.156-.225 14.31c-1.49 36.906-1.49 36.906 14.405 69.038 3.447 4.509 6.107 9.483 8.883 14.421q1.709 2.934 3.426 5.863c5.473 9.398 10.852 18.85 16.239 28.297l1.843 3.179C143 414 143 414 143.898 416.093c2.905 6.611 9.83 9.231 15.852 12.47q1.905 1.05 3.805 2.107 3.869 2.149 7.748 4.28c5.29 2.919 10.492 5.983 15.697 9.05 6.481 3.8 12.98 7.57 19.508 11.29.635.36 1.27.723 1.924 1.095q4.65 2.65 9.306 5.287l3.395 1.93 2.996 1.697C227 467 227 467 229.567 469.07c4.549 2.559 8.106 2.53 13.24 2.528l2.944.046c3.207.043 6.413.055 9.62.064q3.364.022 6.727.048 7.054.04 14.11.041c5.992.005 11.982.07 17.973.15 4.636.053 9.271.064 13.907.064q3.31.009 6.62.064c14.49.22 23.637-1.366 35.292-10.074a254 254 0 0 1 6.238-3.633l3.004-1.73 3.07-1.762 6.774-3.898 3.456-1.988q5.125-2.949 10.247-5.903l3.345-1.927a1420 1420 0 0 0 6.57-3.82c4.873-2.843 9.737-5.602 14.8-8.093 11.737-5.9 16.752-11.806 22.224-23.634 2.369-4.863 5.197-9.465 7.96-14.112q1.796-3.063 3.59-6.129l1.843-3.149c3.82-6.551 7.599-13.127 11.378-19.702l1.735-3.016 1.67-2.975c1.415-2.456 2.947-4.763 4.597-7.067 8.246-11.943 9.07-22.434 9.038-36.669q.033-3.327.072-6.654c.042-4.63.045-9.259.022-13.89-.018-4.69.023-9.374.123-14.064.81-37.59.81-37.59-15.673-70.343-3.692-5.037-6.61-10.519-9.646-15.967q-1.834-3.186-3.68-6.367a4739 4739 0 0 1-6.847-11.887q-2.053-3.575-4.109-7.15l-2.88-5.022a796 796 0 0 0-3.457-5.953 373 373 0 0 1-3.405-5.95c-2.792-3.453-5.893-5.053-9.809-7.046q-2.448-1.303-4.89-2.613l-2.635-1.405c-4.805-2.614-9.51-5.397-14.225-8.17a3945 3945 0 0 0-28.98-16.81l-3.016-1.736-2.974-1.67c-2.458-1.416-4.767-2.948-7.073-4.598-11.911-8.218-22.32-9.055-36.516-9.002q-3.3-.03-6.6-.065a995 995 0 0 0-13.774-.01c-4.656.024-9.305-.01-13.96-.102-36.374-1.091-36.374-1.091-68.043 14.74" fill="#EAE8EC"/>
  <path d="M362.688 475.313q3.7.082 7.4.15c5.973.12 11.942.302 17.912.537-7.063 18.06-18.234 31.087-35.945 39.379-11.607 4.349-28.767 5.317-40.258.098L309 514l-4.36-2.164c-3.05-1.546-6.097-3.1-9.113-4.715l-1.914-1.018C292 505 292 505 290 502l2.085-1.202 16.372-9.443 1.79-.999a107 107 0 0 0 9.906-6.298c13.79-9.505 26.192-9.39 42.534-8.745M98 399c3.643 1.378 6.993 3.01 10.395 4.906l3.122 1.738c4.476 2.52 8.938 5.064 13.396 7.615a275 275 0 0 0 7.939 4.292c10.04 5.417 14.624 11.66 19.718 21.723 1.69 3.22 3.5 6.362 5.336 9.5l1.037 1.773 2.084 3.558q2.485 4.249 4.946 8.512l1.695 2.925C169 468 169 468 170 471c-3.77.088-7.541.14-11.312.188l-3.19.076c-16.369.15-31.268-6.08-43.021-17.452-9.01-10.231-14.646-22.095-14.575-35.867l.01-3.36.025-3.46.014-3.531q.018-4.298.049-8.594m82 77c56.139-3.314 56.139-3.314 78.3 13.956 4.087 3.094 8.487 5.543 12.95 8.044q2.012 1.182 4.016 2.375L278 502c-8.044 9.196-23.141 15.28-35.067 16.15-17.144.905-31.192-2.329-44.558-13.65-6.071-5.741-10.209-12.331-14.375-19.5l-1.141-1.913C180 478.237 180 478.237 180 476" fill="#453ACA"/>
  <path d="M170 98a260 260 0 0 1-12.06 22.352c-2.215 3.664-4.312 7.324-6.21 11.164-5.483 10.805-11.266 15.718-22.004 21.07-3.226 1.673-6.365 3.48-9.5 5.316l-1.773 1.038-3.558 2.086q-4.248 2.487-8.512 4.947l-2.925 1.695C101 169 101 169 98 170c-.624-21.422-.355-39.163 15.125-55.75C130.439 98.08 147.557 97.347 170 98m-78 82c.335 7.268.56 14.534.714 21.808q.097 3.695.267 7.386c.826 18.317-2.049 30.258-12.397 45.46-2.062 3.054-3.876 6.201-5.697 9.405a2286 2286 0 0 1-3.2 5.378l-1.7 2.866A3956 3956 0 0 1 66 279c-3.303-3.865-5.72-7.836-8.062-12.312l-1.063-2.02c-7.108-13.685-9.563-29.421-5.312-44.48C56.315 206.876 74.838 180 92 180m306-82c3.833-.059 7.666-.094 11.5-.125 1.078-.017 2.155-.034 3.266-.05 12.62-.078 25.127 3.265 35.234 11.175l2.297 1.793C460.505 119.284 466.979 130.104 470 143c.431 4.77.385 9.467.25 14.25l-.055 3.738A737 737 0 0 1 470 170c-8.429-4.034-16.631-8.323-24.605-13.2-3.366-2.057-6.653-3.972-10.282-5.527-12.987-5.916-17.999-17.795-24.362-29.97-2.585-4.875-5.382-9.616-8.188-14.365C398 99.155 398 99.155 398 98m72 301c.838 27.589.838 27.589-4 38l-1.355 2.934C458.055 452.953 448.299 461.278 435 467l-2.684 1.2c-11.03 4.174-22.707 3.169-34.316 2.8 1.41-3.773 3.142-7.165 5.16-10.648l1.891-3.276a4958 4958 0 0 1 5.109-8.747l3.03-5.183a230 230 0 0 0 4.345-7.912l1.1-2.026a299 299 0 0 0 2.654-5.06c3.728-5.23 10.233-8.034 15.711-11.148q1.817-1.05 3.632-2.103a1490 1490 0 0 1 10.993-6.272l5.637-3.2q2.516-1.43 5.033-2.856C468.448 399 468.448 399 470 399M65 290c2.777 2.483 4.424 5.224 6.258 8.453l1.898 3.32 1.969 3.477q1.908 3.353 3.82 6.703l.967 1.755c1.682 3.017 3.428 5.8 5.567 8.515 9.064 12.025 7.534 25.266 7.084 39.714q-.069 3.8-.124 7.6c-.098 6.156-.248 12.31-.439 18.463-4.723-1.493-8.682-3.416-12.812-6.125l-1.856-1.215C64.214 371.908 55.902 361.15 51 346c-3.982-21.772 2.589-37.71 14-56m411-110 8.281 4.508c15.366 8.432 26.207 18.83 32.219 35.742 5.123 18.984-.395 35.846-9.79 52.402A669 669 0 0 1 503 279c-2.53-2.303-4.093-4.671-5.75-7.656l-1.598-2.856L494 265.5a4910 4910 0 0 0-3.187-5.719l-1.738-3.215c-1.488-2.666-3.157-5.118-4.941-7.595-9.66-13.963-9.461-26.606-8.822-43.158q.084-3.773.15-7.545c.12-6.092.304-12.18.538-18.268m26 110c12.209 14.725 16.907 30.122 16 49-1.294 10.421-5.79 19.651-12 28l-1.367 1.871c-6.729 8.534-17.13 14.182-26.633 19.129h-2c-.257-7.378-.43-14.756-.55-22.137q-.074-3.756-.204-7.51c-.53-15.591-.081-26.835 9.431-39.526 2.103-2.904 3.807-6.01 5.546-9.14l1.94-3.375 2.902-5.062q1.452-2.532 2.908-5.062l1.695-2.958C501 291 501 291 502 290M346 52l2.54.777c17.44 5.724 28.32 17.35 36.541 33.324l1.051 2.124 1.067 2.151L388 92c-7.36.257-14.719.43-22.083.55q-3.744.074-7.488.204c-15.859.541-27.387-.177-40.548-9.453-2.838-1.963-5.812-3.61-8.818-5.305q-3.034-1.776-6.063-3.558l-6.187-3.63-2.668-1.568A78 78 0 0 0 290 67v-2c17.39-10.197 35.337-20.146 56-13m-68 13v2l-1.993 1.11q-4.662 2.6-9.32 5.203c-1.033.575-2.066 1.15-3.13 1.744l-3.233 1.806-1.726.934a93 93 0 0 0-9.702 6.114c-13.93 9.63-26.57 9.415-43.083 8.776q-3.773-.083-7.545-.15c-6.092-.12-12.18-.303-18.268-.537 8.563-17.588 18.523-31.063 37-39 22.862-7.694 41.47.236 61 12" fill="#4439CA"/>
  <path d="M173 237c2.354 2.354 2.279 2.93 2.414 6.133l.117 2.441.094 2.551.117 2.574c.095 2.1.177 4.2.258 6.301l2.3-1.68c1.492-1.086 1.492-1.086 3.012-2.195l2.989-2.18c5.502-3.965 5.502-3.965 9.387-3.57L197 248c.313 2.188.313 2.188 0 5-3.377 3.78-7.158 6.72-11.25 9.688-3.978 2.63-3.978 2.63-6.75 6.312l1.529 1.054c2.286 1.58 4.566 3.17 6.846 4.759l2.406 1.658 2.305 1.611 2.126 1.476c2.516 2.03 3.697 3.718 4.1 6.942-.312 2.5-.312 2.5-1.375 4.375-2.423 1.407-4.18 1.354-6.906.84-4.122-1.45-7.51-4.187-11.031-6.715a250 250 0 0 0-5-3l.035 2.266.028 2.984.035 2.953C174 293 174 293 173.51 294.751c-.687 3.023-.714 5.928-.792 9.026l-.114 3.994-.105 4.166q-.103 4.077-.219 8.153l-.092 3.652A47.5 47.5 0 0 1 171 332c-6.75-.75-6.75-.75-9-3-.24-2.063-.24-2.063-.227-4.633v-2.912l.032-3.15.008-3.22c.011-3.404.037-6.807.062-10.21q.016-3.455.027-6.91.034-8.483.098-16.965l-1.852 1.244-2.441 1.635-2.415 1.62c-7.072 4.633-7.072 4.633-10.605 4.251C143 289 143 289 142 288c-.348-2.344-.348-2.344 0-5 1.941-1.844 1.941-1.844 4.563-3.5l2.746-1.785L152 276q2.074-1.454 4.125-2.937L159 271c-1.149-3.446-2.191-3.916-5-6v-2l-2.187-.75c-4.476-1.99-8.449-4.895-10.813-9.25-.312-3.625-.312-3.625 0-7 2-2 2-2 5.438-2.187 5.59.78 9.242 4.64 13.34 8.253 1.857 2.043 1.857 2.043 3.222 1.934l.113-2.957.2-3.856.175-3.832C164 240 164 240 165.352 238.07c2.565-1.665 4.677-1.386 7.648-1.07" fill="#EFEDED"/>
  <path d="M414 430c0 3.612-.946 4.966-2.781 8.05l-1.805 3.061-1.914 3.202A1960 1960 0 0 0 392 471h-47c3.358-2.687 6.025-4.72 9.676-6.742l2.722-1.52 2.914-1.613a1488 1488 0 0 0 28.072-16.072q4.31-2.524 8.616-5.053l2.704-1.587q7.152-4.2 14.296-8.413" fill="#473DCB"/>
  <path d="M154 431c3.633 1.365 6.91 2.998 10.262 4.95l3.103 1.798 3.322 1.94 5.226 3.032 5.437 3.16c5.832 3.39 11.68 6.753 17.525 10.12q4.561 2.627 9.116 5.262 3.211 1.855 6.432 3.695l3.335 1.918 3.043 1.742L223 470v1h-47c-7.625-13.375-7.625-13.375-9.99-17.529l-1.924-3.37-1.041-1.824a422 422 0 0 0-8.027-13.408C154 433 154 433 154 431" fill="#473CCA"/>
  <path d="M244 476h80c-2.921 2.921-5.32 4.436-8.918 6.398l-1.746.96q-2.758 1.514-5.524 3.017-2.73 1.491-5.456 2.987-2.617 1.434-5.236 2.864c-2.638 1.5-5.112 3.094-7.608 4.813-2.573 1.623-3.372 1.957-6.532 2.047-3.863-1.408-7.181-3.298-10.668-5.461l-4.476-2.707-2.364-1.436c-5.142-3.083-10.365-6.028-15.578-8.99l-2.335-1.34-2.085-1.187L244 477z" fill="#483DCB"/>
  <path d="M346 98h46l11.035 19.14 1.977 3.44a431 431 0 0 0 4.081 6.887l1.966 3.267 1.786 2.93L414 136l-1 2c-17.391-9.902-34.75-19.853-52-30l-2.486-1.46a1876 1876 0 0 1-6.514-3.853l-1.89-1.113A141 141 0 0 1 346 99zm-165.096-1.135c1.915.001 3.832.057 5.744.158l3.069.043c3.222.056 6.438.182 9.658.309q3.284.075 6.566.137A851 851 0 0 1 222 98c-2.621 2.736-5.26 4.435-8.574 6.3-1.131.642-2.263 1.282-3.428 1.942l-1.82 1.023c-3.173 1.782-6.337 3.58-9.502 5.376l-1.95 1.104c-6.272 3.555-12.504 7.177-18.726 10.818l-2.83 1.655-5.38 3.15c-4.927 2.883-9.859 5.757-14.79 8.632l-1-2c1.26-2.639 1.26-2.639 3.191-5.969l1.038-1.803c1.104-1.914 2.218-3.82 3.334-5.728q1.088-1.882 2.173-3.766c3.774-6.528 3.774-6.528 5.141-8.77 1.204-2.041 1.204-2.041 2.341-4.594 2.443-4.887 3.977-7.914 9.686-8.505" fill="#453ACA"/>
  <path d="M98 347c2.812 2.812 4.333 5.076 6.266 8.504l1.926 3.397 2.058 3.661q1.608 2.843 3.22 5.685 1.107 1.951 2.211 3.904 3.718 6.567 7.499 13.099l1.013 1.751a8578 8578 0 0 0 4.757 8.206A749 749 0 0 1 138 415c-3.858-1.435-7.305-3.23-10.86-5.3l-3.382-1.964-3.508-2.048q-3.43-1.996-6.86-3.989l-3.06-1.786c-4.086-2.347-8.211-4.625-12.33-6.913z" fill="#453BCA"/>
  <path d="M469 347h1c.229 6.298.386 12.595.494 18.896q.068 3.213.185 6.425c.11 3.084.16 6.164.2 9.25l.14 2.888c.006 6.508.006 6.508-2.84 9.377-2.326 1.576-4.676 2.889-7.179 4.164q-1.78 1.064-3.544 2.15c-5.972 3.447-5.972 3.447-8.933 5.139-1.92 1.098-3.832 2.207-5.746 3.316l-3.675 2.106-3.334 1.915C433 414 433 414 430 414l2.754-4.773 1.818-3.152 4.028-6.98q5.217-9.038 10.42-18.083c11.195-19.462 11.195-19.462 16.355-28.137l1.101-1.866A131 131 0 0 1 469 347M136 154l1 2c-1.013 2.252-1.013 2.252-2.613 5.066l-1.768 3.133-1.931 3.363-1.96 3.451A1369 1369 0 0 1 115.66 193.5c-2.143 3.61-4.25 7.24-6.351 10.875l-1.94 3.35a2962 2962 0 0 0-3.812 6.607l-1.748 3.016-1.569 2.719L99 222h-1v-46c13.375-7.625 13.375-7.625 17.529-9.99 6.873-3.924 13.71-7.896 20.471-12.01" fill="#453ACA"/>
  <path d="M91 245h1v79c-2.414-3.218-4.404-6.29-6.398-9.762l-1.954-3.392-2.023-3.534-2-3.474q-1.935-3.364-3.847-6.742a184 184 0 0 0-3.44-5.759c-3.449-5.644-3.449-5.644-2.932-8.884L71 280q1.025-1.91 2.031-3.828 1.23-2.214 2.469-4.422l1.32-2.36q4.802-8.549 9.743-17.015l1.3-2.243A214 214 0 0 1 91 245" fill="#4439CA"/>
  <path d="M431 154a1393 1393 0 0 1 22.875 12.688l3.047 1.72c5.54 3.134 5.54 3.134 8.078 4.592l2.79 1.036C470 176 470 176 470.427 178.042c.155 2.785.134 5.525.061 8.313l-.021 3.082c-.028 3.25-.09 6.5-.154 9.75a3162 3162 0 0 0-.069 6.608Q470.16 213.897 470 222c-2.846-3.408-5.182-6.835-7.363-10.7l-1.917-3.377-2.033-3.61-3.194-5.632-2.19-3.865a2691 2691 0 0 0-11.553-20.129c-3.518-6.087-3.518-6.087-5.271-9.13a560 560 0 0 0-2.786-4.765C431 156.21 431 156.21 431 154" fill="#453ACA"/>
  <path d="M476 245c3.07 3.837 5.397 7.213 7.785 11.438l1.038 1.825q1.625 2.866 3.24 5.737 1.624 2.87 3.25 5.737 1.473 2.6 2.941 5.204c1.658 3.04 1.658 3.04 3.6 5.586C499 283 499 283 498.41 285.907c-1.507 3.307-3.153 6.441-4.965 9.593l-1.039 1.814q-1.083 1.889-2.173 3.772a1342 1342 0 0 0-3.292 5.726C480.495 318.03 480.495 318.03 477 323h-1zM288 71c3.156 1.519 3.156 1.519 6.5 3.457l1.814 1.043c1.9 1.096 3.793 2.204 5.686 3.313q1.905 1.1 3.813 2.197C316.914 87.429 316.914 87.429 322 91v1h-76c3.478-3.478 5.908-5.268 10.121-7.566l1.763-.97c1.848-1.016 3.7-2.021 5.553-3.026q2.773-1.517 5.543-3.037 2.517-1.377 5.037-2.747c2.968-1.575 2.968-1.575 5.499-3.431 3.342-1.645 4.936-1.26 8.484-.223" fill="#4439CA"/>
  <path d="M275.102 233.547c1.898.453 1.898.453 4.273 2.64 3.798 6.574 4.9 12.628 3.055 20.133-1.243 3.545-2.479 6.333-5.43 8.68-6.918.769-6.918.769-10.375-1.687-4.428-6.302-4.402-13.02-3.312-20.442 1.646-6.805 4.897-9.683 11.789-9.324" fill="#4C41CB"/>
  <path d="M304.313 302.813c2.765.192 4.327.789 6.687 2.187l3-2c3.063.188 3.063.188 6 1 2.391 3.587 2.234 5.164 2.195 9.418l-.02 3.799-.05 3.97q-.016 2.004-.027 4.006-.036 4.904-.098 9.807h-4l-1-29-5 2-1 27h-4l-1-27c-3.86-1.345-3.86-1.345-7 0v27h-3v-31h5c1-1 1-1 3.313-1.187" fill="#DFDCE9"/>
  <path d="M250 269c2.862 2.197 3.895 3.324 4.454 6.933l-.063 3.364-.04 3.652-.101 3.801-.055 3.848A837 837 0 0 1 254 300h-4l-1-2-2 2c-3.518.459-5.349.411-8.375-1.5-1.858-2.858-2.249-5.061-2.09-8.465.828-3.623 2.834-5.467 5.465-8.035 2.709-1.354 5.01-1.065 8-1l-.437-3.937-.247-2.215c-.135-1.86-.135-1.86-1.316-2.848-4.65.448-4.65.448-9 2v-5c3.988-1.056 7.01-1.104 11 0" fill="#E2E0EA"/>
  <path d="M292.64 269.66c3.575 3.737 2.865 8.506 2.8 13.377l-.127 3.776-.069 3.833A659 659 0 0 1 295 300l-2.375-.562c-2.596-.698-2.596-.698-4.625.562-5.373.457-5.373.457-7.66-1.21-2.215-2.958-1.862-5.761-1.774-9.34.65-3.665 2.54-5.262 5.434-7.45l1-1c2-.04 4-.043 6 0l-.437-3.937-.247-2.215c-.135-1.86-.135-1.86-1.316-2.848-3.62-.294-5.877.15-9 2l1-5c4.504-1.334 7.522-1.93 11.64.66" fill="#E4E2EB"/>
  <path d="M354 269c3.51 0 6.565-.375 10-1 3.621 3.85 4.49 6.134 4.39 11.395l-.038 3.642-.102 3.776-.055 3.833A824 824 0 0 1 368 300h-4l-1-27-4-1c-2.64 2.64-2.302 3.98-2.414 7.664l-.117 3.399-.094 3.562-.117 3.586q-.142 4.394-.258 8.789h-3l-.076-2.263q-.176-5.056-.361-10.112l-.12-3.562-.127-3.399-.11-3.142c-.048-2.516-.048-2.516-1.206-4.522l-6 1v27h-3v-31c7.56-1.08 7.56-1.08 12 0m-134 0c3.51 0 6.565-.375 10-1 3.621 3.85 4.49 6.134 4.39 11.395l-.038 3.642-.102 3.776-.055 3.833A824 824 0 0 1 234 300h-4l-1-27-4-1c-2.678 2.678-2.305 4.14-2.414 7.883l-.117 3.535-.094 3.707-.117 3.73q-.142 4.572-.258 9.145h-3l-.076-2.355q-.175-5.26-.362-10.52l-.119-3.707-.127-3.535-.11-3.27c-.04-2.594-.04-2.594-1.206-4.613l-6 1v26h-3v-30c7.56-1.08 7.56-1.08 12 0" fill="#EEEDED"/>
  <path d="M288 304c4.3 5.293 4.411 9.322 4 16h-13l.938 4.938.527 2.777c.312 2.238.312 2.238 1.535 3.285 4.65.305 4.65.305 9-1l-1 5c-4.79.47-7.928.776-11.937-2.125-4.049-5.643-4.786-11.098-4.063-17.875.909-4.198 1.999-7.784 4.75-11.125 3.55-1.38 5.647-1.033 9.25.125m44-36c3.297 3.372 5.865 6.171 6.098 11.043L338 285h-14l3 12c5.578.316 5.578.316 9-1v4c-3.38.29-6.628.43-10 0-2.5-2.25-2.5-2.25-4-5l-1.07-1.781c-2.225-5.31-1.82-12.348-.137-17.778 2.471-5.16 5.205-8.584 11.207-7.441" fill="#DCDAE9"/>
  <path d="M378 268c3.375 0 3.375 0 7 1 3.596 3.596 4.23 6.46 4.25 11.375L389 285h-13l.875 4.875.492 2.742c.463 2.548.463 2.548 2.633 4.383 3.091.238 5.031-.01 8-1v4c-9.106.626-9.106.626-12.5-1.75-3.171-4.757-3.865-8.404-3.875-14.125l-.074-2.105c-.03-5.181 1.237-8.02 4.449-12.02z" fill="#DFDCE9"/>
  <path d="M208 234c10 0 10 0 12.625 1.375 2.108 4.024 2.042 8.17 1.375 12.625l-2 2c.4 5.137 1.823 10.336 4 15h-5a895 895 0 0 1-1.5-4.812l-.844-2.708C216 255 216 255 216 252h-5v13h-3z" fill="#E6E4EB"/>
  <path d="M234.313 233.688c3.687.312 3.687.312 6.062 2.125 3.353 4.513 2.703 8.799 2.625 14.187h-13l.875 4.875.492 2.742c.463 2.548.463 2.548 2.633 4.383 1.993.024 1.993.024 4.125-.375L242 261v4c-3.71.288-7.3.443-11 0-3.61-3.266-4.928-5.885-5.238-10.703a598 598 0 0 1-.075-4.547l-.087-2.277c-.06-5.318.943-8.216 4.4-12.473 1-1 1-1 4.313-1.312" fill="#E6E5EB"/>
  <path d="M348.563 233.313c3.437.687 3.437.687 5.812 3.062 3.02 4.879 2.707 7.903 2.625 13.625h-13l.438 4.313c.08.8.162 1.6.246 2.425.269 2.423.269 2.423 1.316 5.262 3.522.08 6.62.04 10-1v4c-3.71.288-7.299.437-11 0-3.93-3.462-4.901-6.627-5.273-11.8q-.06-2.257-.102-4.512l-.113-2.264c-.064-4.058.243-6.67 2.789-9.924 2.699-2.5 2.699-2.5 6.262-3.187" fill="#E6E4EB"/>
  <path d="M275.102 233.547c1.898.453 1.898.453 4.273 2.64 3.798 6.574 4.9 12.628 3.055 20.133-1.243 3.545-2.479 6.333-5.43 8.68-6.918.769-6.918.769-10.375-1.687-4.428-6.302-4.402-13.02-3.312-20.442 1.646-6.805 4.897-9.683 11.789-9.324M271 236c-4.887 6.162-4.56 12.373-4 20 .743 2.42 1.56 3.9 3 6h6c4.007-5.844 3.637-12.125 3-19-.922-3.699-.922-3.699-3-6-2.584-.97-2.584-.97-5-1" fill="#E5E4EB"/>
  <path d="M270.625 268.188C273 269 273 269 275 272c.227 2.91.227 2.91.195 6.418l-.02 3.799-.05 3.97q-.016 2.004-.027 4.006-.036 4.904-.098 9.807h-4l-1-27-3-1c-2.27.988-2.27.988-4 3-.642 2.697-.642 2.697-.61 5.762l-.097 3.388-.043 3.538-.09 3.572A748 748 0 0 0 262 300h-3v-31l5 1 2-1c2-1 2-1 4.625-.812" fill="#DAD8E9"/>
  <path d="M404.625 268.188C407 269 407 269 409 271c.227 2.797.227 2.797.195 6.32l-.02 3.809-.05 3.996q-.016 2.01-.027 4.02-.036 4.928-.098 9.855h-3l-.076-2.263q-.176-5.056-.361-10.112l-.12-3.562-.127-3.399-.11-3.142c-.048-2.516-.048-2.516-1.206-4.522-2.867.573-3.861.861-6 3-.372 2.618-.372 2.618-.414 5.664l-.117 3.399-.094 3.562-.117 3.586q-.142 4.394-.258 8.789h-4v-31h4l1 2 1.688-1.562C402 268 402 268 404.625 268.188" fill="#DEDBE9"/>
  <path d="M287 234h3l.076 2.247q.176 5.033.361 10.065l.12 3.538.127 3.388.11 3.127c.108 2.742.108 2.742 1.206 5.635 2.169-.506 4-1 6-2l1-26h4v31h-4l-1-2-2 2c-3.5.313-3.5.313-7 0-2.391-3.587-2.234-5.164-2.195-9.418l.02-3.799.05-3.97q.016-2.004.027-4.006.036-4.904.098-9.807" fill="#E0DDEA"/>
  <path d="m311.25 268.813 2.703.082L316 269v5l-1.687-1.062c-2.898-1.175-4.365-.869-7.313.062-3.403 3.403-3.2 7.21-3.312 11.875.046 5.376.481 8.294 4.312 12.125h4l1-10h-4v-2h7q.039 3.468.063 6.938l.035 3.902C316 299 316 299 315 300c-4.491.566-7.969.592-11.937-1.687-4.423-4.959-4.435-9.981-4.317-16.364.407-4.72 1.477-8.281 5.035-11.62 2.708-1.622 4.34-1.64 7.469-1.517" fill="#E4E2EA"/>
  <path d="m219 303 1 5-9-1c-.387 3.77-.439 5.437 1.934 8.484l2.504 2.266c5.422 4.99 5.422 4.99 5.937 9.625C221 331 221 331 219.125 333.438c-4.396 2.198-8.3 1.9-13.125 1.562v-5l1.625 1.063c3.108 1.226 5.17.666 8.375-.063.419-2.79.419-2.79 0-6-2.229-2.646-2.229-2.646-5-5-3.627-3.829-5.096-6.64-5-12 3.662-5.553 6.87-5.52 13-5" fill="#E5E4EB"/>
  <path d="M223 304h4l.84 2.59 1.097 3.348 1.09 3.34c.712 2.603.712 2.603 1.973 3.722l4-13h4c-1.006 5.247-2.386 10.354-3.812 15.5l-.752 2.84c-1.382 4.957-2.55 9.047-6.436 12.66-3.25.313-3.25.313-6 0v-3h5c2.257-8.536-.41-14.851-3.652-22.656C223 306 223 306 223 304m31-1 1 4h-8c-.419 2.79-.419 2.79 0 6 2.229 2.646 2.229 2.646 5 5 3.627 3.829 5.096 6.64 5 12-1.812 2.938-1.812 2.938-5 5-3.377.402-6.617.296-10 0v-5l1.688 1.063c2.871 1.164 4.383.808 7.312-.063 1.236-1.037 1.236-1.037 1.34-3.27-.466-3.74-2.037-4.899-4.778-7.418-5.422-5.048-5.422-5.048-5.937-9.687.375-3.625.375-3.625 2.438-6.062 3.548-1.888 5.973-1.874 9.937-1.563" fill="#E5E3EB"/>
  <path d="m254.188 233.813 2.73.082L259 234l-1 4-7-1c-.8 2.294-.8 2.294-1 5 1.281 2.223 1.281 2.223 3.25 4.125l1.89 2.008c1.791 1.846 1.791 1.846 3.563 3.332 2.181 2.582 1.832 5.117 1.7 8.367C260 262 260 262 258.062 264.625c-4.254 1.91-7.583 1.273-12.063.375l1-4 3.375.5c3.345.546 3.345.546 5.625.5.338-3.628.347-5.473-1.687-8.562A260 260 0 0 0 247 246c-1.873-1.873-1.236-4.498-1.328-6.992.328-2.008.328-2.008 1.52-3.754 2.437-1.69 4.059-1.556 6.995-1.441" fill="#E7E5EB"/>
  <path d="m332.188 233.875 2.73.055L337 234v5l-1.687-1.062c-2.293-1.088-2.293-1.088-4.875-1-2.72.913-2.72.913-4.25 3.937-1.907 5.313-2.61 11.91-.286 17.164 1.165 1.823 1.165 1.823 3.098 3.961l8-1v4c-8.902.778-8.902.778-13-2.125-4.102-5.897-4.9-11.83-4-18.875 2.226-6.6 4.773-10.318 12.188-10.125" fill="#E3E1EA"/>
  <path d="M308 234h4l1 2 3-2h4v4l-7 2-1 25h-4zm104 35h15v3h-5v28h-4v-29h-6z" fill="#E1DFEA"/>
  <path d="M258 304h16v2h-6v29h-4v-29h-6z" fill="#E2E0EA"/>
  <path d="M320 304c2.391 3.587 2.234 5.164 2.195 9.418l-.02 3.799-.05 3.97q-.016 2.004-.027 4.006-.036 4.904-.098 9.807h-4l-1-29-6 2-2-2c3.98-2.926 6.24-3.48 11-2m42.625-35.937c2.977 1.175 3.761 2.186 5.375 4.937.34 2.933.34 2.933.293 6.297l-.03 3.652-.075 3.801-.042 3.848q-.053 4.701-.146 9.402h-4l-1-27c-3.747-1.398-3.747-1.398-6 0l-2-2c2.685-1.918 4.275-3.017 7.625-2.937" fill="#DCDAE9"/>
  <path d="M376 272c1.35 4.05.62 6.792 0 11h9v1h-9q.425 2.69.875 5.375l.492 3.023c.429 2.745.429 2.745 2.633 4.602 3.091.238 5.031-.01 8-1v4c-9.106.626-9.106.626-12.5-1.75-3.196-4.794-3.865-8.484-3.875-14.25l-.074-2.156c-.02-3.642.148-5.472 2.472-8.344z" fill="#EAE9EC"/>
  <path d="M226 268c2.913.315 4.546.545 6.65 2.653 1.755 3.051 1.693 5.136 1.643 8.644l-.03 3.652c-.024 1.254-.05 2.509-.076 3.801l-.04 3.848q-.054 4.701-.147 9.402h-4l-.028-2.43c-.054-3.629-.138-7.255-.222-10.882l-.043-3.827-.098-3.662-.063-3.38c-.283-2.948-.283-2.948-2.584-4.706L225 270z" fill="#DBD9E9"/>
  <path d="M208 234h8v2h-5v13h5l-1 2h-4v14h-3z" fill="#F1F0ED"/>
  <path d="M304.563 302.938 307 303l-1.875.813C302.7 304.956 302.7 304.956 301 308h-2v27h-3v-31h5c1-1 1-1 3.563-1.062" fill="#EBEAEC"/>
  <path d="M250 283c.054 1.77.093 3.541.125 5.313l.07 2.988C250 294 250 294 248 297c-2.5.313-2.5.313-5 0-2-2-2-2-2.437-5.312C241 288 241 288 243.25 285.063 246 283 246 283 250 283" fill="#4B41CB"/>
  <path d="M287 234h3l.076 2.247q.176 5.033.361 10.065l.12 3.538.127 3.388.11 3.127c.108 2.742.108 2.742 1.206 5.635l3 1v2c-2.875.188-2.875.188-6 0-2.391-3.587-2.234-5.164-2.195-9.418l.02-3.799.05-3.97q.016-2.004.027-4.006.036-4.904.098-9.807" fill="#F0EFED"/>
  <path d="M291 283q.079 2.937.125 5.875l.07 3.305C291 295 291 295 289 297c-2.562.188-2.562.188-5 0-1.57-1.57-1.245-3.141-1.312-5.312.037-3.34.127-4.418 2.062-7.25C287 283 287 283 291 283" fill="#483DCB"/>
  <path d="M403 269c4.706.706 4.706.706 6 2 .088 2.073.107 4.148.098 6.223l-.01 3.818-.026 4.022q-.008 2.016-.013 4.033A3769 3769 0 0 1 409 299h-3l-.044-2.231c-.075-3.34-.171-6.68-.269-10.019l-.068-3.512-.107-3.379-.08-3.11c-.481-3.06-1.384-4.47-3.432-6.749z" fill="#F0EFED"/>
  <path d="M259 269h3v3h2l-1 3c-.15 1.918-.248 3.84-.316 5.762l-.127 3.388-.12 3.538-.13 3.572A3303 3303 0 0 0 262 300h-3z" fill="#F1EFED"/>
  <path d="M211 236c5 0 5 0 6.813 1.625 1.508 3.017 1.542 5.039 1.187 8.375l-2 3h-6z" fill="#5349CD"/>
  <path d="M281 306c2.375.313 2.375.313 5 1 2.43 3.644 2.162 5.712 2 10h-9c-.25-7.625-.25-7.625 2-11" fill="#4A3FCB"/>
  <path d="M379 271c2.438.375 2.438.375 5 1 1.607 3.215 1.057 6.436 1 10h-9c-.37-6.4-.37-6.4 1.5-9.437z" fill="#4A40CB"/>
  <path d="M327 271c2.375.25 2.375.25 5 1 2.424 3.116 2.174 6.174 2 10h-9c-.25-7.625-.25-7.625 2-11" fill="#4B41CB"/>
  <path d="M233 236c1.875.313 1.875.313 4 1 2.43 3.644 2.162 5.712 2 10h-9c-.37-6.4-.37-6.4 1.5-9.437z" fill="#483DCB"/>
  <path d="M347 236c1.875.313 1.875.313 4 1 2.43 3.644 2.162 5.712 2 10h-9c-.37-6.4-.37-6.4 1.5-9.437z" fill="#493ECB"/>
  <path d="M332 268c3.283 2.772 4.8 4.326 5.313 8.625A83 83 0 0 1 337 284l-4-1 .125-3.25c-.114-3.407-.338-4.957-2.125-7.75-4.14-.21-4.14-.21-8 1 2.042-4.522 3.918-5.827 9-5" fill="#E6E5EB"/>
  <path d="M309 285h7q.039 3.468.063 6.938l.035 3.902C316 299 316 299 315 300q-3.5.062-7 0v-2l4-1 1-10h-4z" fill="#F2F1ED"/>
  <path d="M247 303h7l1 4h-9z" fill="#DDDAE9"/>
  <path d="M211 303h8l1 5-9-4z" fill="#D1CEE7"/>
  <path d="M251 234h8l-1 4-8-2z" fill="#EFEEED"/>
  <path d="M380.625 267.875 383 268l-1.875 1.375c-2.184 1.596-2.184 1.596-4.125 3.625l-3 1c2.773-5.942 2.773-5.942 6.625-6.125" fill="#D4D2E7"/>
</svg>
