<svg xmlns="http://www.w3.org/2000/svg" width="512" height="512">
  <path d="m255.688-.312 2.931.005C272.952-.262 286.898.247 301 3l2.718.488C363.528 14.31 421.042 48.368 458 97l1.263 1.637c7.683 9.995 14.425 20.455 20.737 31.363l1.195 2.052c13.182 22.919 21.788 48.494 27.118 74.323l.446 2.154c2.986 15.642 3.616 31.278 3.553 47.159l-.005 2.931c-.045 14.333-.554 28.279-3.307 42.381l-.488 2.718C497.69 363.528 463.632 421.042 415 458l-1.637 1.263C403.368 466.946 392.908 473.688 382 480l-2.052 1.195c-22.919 13.182-48.494 21.788-74.323 27.118l-2.154.446c-15.642 2.986-31.278 3.616-47.158 3.553l-2.932-.005c-14.333-.045-28.279-.554-42.381-3.307l-2.718-.488C148.472 497.69 90.958 463.632 54 415l-1.263-1.637C45.054 403.368 38.312 392.908 32 382l-1.195-2.052c-13.182-22.919-21.788-48.494-27.117-74.323l-.447-2.154C.255 287.83-.375 272.193-.312 256.313l.005-2.932C-.262 239.048.247 225.102 3 211l.488-2.718C14.31 148.472 48.368 90.958 97 54l1.637-1.263C108.632 45.054 119.092 38.312 130 32l2.052-1.195c22.919-13.182 48.494-21.788 74.323-27.117l2.154-.447C224.17.255 239.807-.375 255.688-.312" fill="#00C8C6"/>
  <path d="m286 78 4.207 1.508c24.597 9.148 43.314 27.632 54.64 51.144 9.54 20.85 10.071 42.263 5.153 64.348l-.586 2.723C345.004 214.873 333.836 231.12 321 243q-2.508 2.493-5 5l1.92.883C341.224 259.649 341.224 259.649 351 267l3.145 2.293c23.802 17.603 41.5 39.799 53.855 66.707l1.645 3.441c4.369 9.547 7.042 19.354 9.355 29.559l.505 2.217c2.435 11.061 2.763 21.459 2.495 32.783h-30l-1.187-12.937C389.207 375.25 385.68 361.46 379 347l-1.367-2.98c-15.27-31.903-42.867-56.092-75.88-68.446-32.136-11.093-70.93-10.39-101.753 4.426l-1.852.886C184.284 287.622 172.14 296.356 161 307l-2.191 1.965c-11.372 10.598-19.623 24.201-26.002 38.263a210 210 0 0 1-2.229 4.702C123.21 367.987 121.303 385.59 120 403H90c0-8.052.006-15.346 1.188-23.187l.398-2.7C96.313 347.101 109.821 317.767 130 295l1.383-1.582C138.035 285.84 144.91 279.075 153 273l1.617-1.222c12.938-9.716 26.64-17.17 41.383-23.778-2.35-2.367-4.703-4.722-7.14-7-19.123-18.13-29.107-43.213-30.248-69.277-.599-26.735 10.449-51.408 28.7-70.536C212.42 77.206 252.654 64.91 286 78" fill="#FCFEFE"/>
  <path d="M291.398 113.07c2.652 1.87 5.13 3.832 7.602 5.93l3.125 2.25c12.918 12.356 20.719 28.955 21.226 46.804.076 8.069-.438 15.341-3.351 22.946l-1.066 2.977c-2.728 7.11-6.302 13.003-10.934 19.023l-2.187 3.063c-10.38 11.891-26.743 19.913-42.385 21.138-20.3.783-37.294-3.183-52.967-16.834C200.094 210.395 193.398 197.958 190 184l-.517-1.88c-3.552-15.593.739-32.556 8.548-46.058 20.27-31.53 60.829-42.814 93.367-22.992" fill="#01C8C6"/>
</svg>
